/* XPM */
static const char *bitcoin32_xpm[] = {
/* columns rows colors chars-per-pixel */
"32 32 397 2",
"hX c #A26911",
">X c #C07F16",
"{. c #A26C17",
"|. c #694411",
";o c #5A3C16",
"+O c #3F2A15",
"7  c #452F16",
"h. c #6F4C1C",
"W. c #6C4B1C",
"b. c #3F2A16",
"P  c #543A1A",
"g  c #241815",
"go c #7B5620",
"y  c #181115",
"'. c #392819",
"(X c #332318",
"#X c #0C0A15",
"0  c #271C1A",
"=. c #0C0A18",
"5. c #1B181F",
")o c #FB9D00",
"&  c #FE9E00",
" . c #F89900",
"=  c #F59800",
"O  c #F29700",
"e  c #FE9E01",
"YX c #F59801",
"nX c #F29701",
";  c #FB9D02",
"L. c #F29702",
"@o c #FBA004",
"XO c #FB9D04",
"N. c #F89F05",
"^X c #F59B04",
"6X c #E69005",
"8o c #DD9308",
"n. c #E38F07",
",  c #DA8906",
"0. c #DA8908",
"C. c #CE8208",
"1X c #B6740A",
"iX c #B6740B",
"#O c #D48A11",
"do c #B0720D",
"PX c #B97812",
"xo c #AD7114",
"to c #986413",
"F  c #986414",
"c. c #684210",
"ko c #A16D1A",
"d. c #714B14",
"r. c #624013",
"]. c #775018",
"}  c #865B1B",
"fo c #865B1D",
"9  c #171217",
"v. c #080717",
"{X c #533B20",
"%o c #2F231D",
"bX c #FD9C00",
"]X c #FDA202",
"%  c #FA9B00",
"$  c #F79A00",
"8O c #FA9B01",
"4O c #F79A01",
"9. c #EE9401",
"G  c #F79A02",
"GX c #F49902",
"To c #F49903",
"Y  c #E89204",
"eX c #DC8B06",
"Qo c #D08408",
"UX c #DC8E0B",
"XX c #CA7F09",
"<O c #C77E0A",
";. c #D0870D",
"-X c #AF700B",
"K. c #CD8610",
"*O c #9D640B",
"E  c #BE7B10",
"-o c #A66A0D",
"9O c #AC6F0F",
"Lo c #CD8613",
"Fo c #AF7314",
"S  c #9D6714",
"/X c #7F5413",
"KX c #9A6616",
"B  c #885A15",
"~o c #764E14",
"r  c #6D4813",
"6  c #704913",
"fX c #4F3515",
"zo c #704C19",
"[. c #7F571C",
"io c #553A18",
"Ko c #76511D",
"oo c #4C3418",
"]  c #583E1C",
"u  c #1F1615",
"f  c #161016",
"=O c #0D0A17",
"4X c #0A0917",
"&o c #1C1519",
"u. c #FFA700",
"V  c #FFA400",
"p. c #FFA100",
"z  c #FF9E00",
"pX c #FC9D00",
"s  c #F99C01",
"   c #F39700",
"Wo c #F69801",
"R  c #F39701",
"M. c #F09602",
"+o c #F39A04",
"uo c #EA9403",
"5O c #EA9406",
"_o c #E48F06",
"q  c #E18E07",
"|o c #D58707",
";X c #D88808",
"qX c #BA7507",
"]o c #C67F0A",
"TX c #C9800B",
"). c #C67F0C",
"oO c #96600C",
"}o c #C37E11",
"/o c #BA7810",
"EX c #B77710",
"LX c #B1720F",
"S. c #C07D13",
"W  c #AE7112",
"A  c #A26A12",
"[X c #905E13",
"0X c #8D5D16",
"Do c #785015",
" O c #7E5517",
"*. c #5D3E14",
"9o c #5A3D14",
"p  c #5D3E15",
"I  c #634317",
"O. c #3F2B15",
"_. c #513718",
"V. c #4E361A",
"M  c #1E1414",
"T. c #453019",
"R. c #3C2A19",
"`  c #2A1E19",
"tX c #120D16",
"'  c #5A4020",
"OO c #0C0B18",
"!o c #151119",
"t  c #060618",
"^. c #FE9F01",
"7X c #FB9B00",
"v  c #F89A00",
"-  c #F59900",
"^o c #F89A01",
":  c #FE9F02",
"w. c #F59901",
"n  c #F89A02",
"|X c #F59903",
"(. c #F29804",
"G. c #EC9303",
"Co c #EF9708",
"yo c #DD8B06",
"Vo c #EC960A",
"Mo c #CE830A",
"$O c #C27C0B",
"~  c #BC770B",
"^  c #B0700F",
"VX c #AD6F0F",
"OX c #A1680F",
"3X c #86560F",
"CX c #A46C14",
"DX c #835511",
"k  c #926014",
"6. c #7D5315",
"+X c #A16B19",
" X c #744D14",
"<o c #6E4814",
"@X c #684618",
"@. c #4D3418",
"rX c #382717",
"Y. c #382718",
",. c #261B17",
"kX c #2C2019",
"$o c #1A1418",
"SX c #080818",
"2. c #FD9D00",
"4  c #FA9C00",
"x. c #FA9C01",
"T  c #F49700",
"a  c #FA9C02",
"9X c #F19601",
"H. c #F49702",
"J. c #F19603",
">  c #EE9504",
"@O c #E89306",
"&X c #DF8D06",
"g. c #D68706",
"|  c #DC8C0A",
"vX c #D6870A",
":X c #D0850C",
"co c #B8770E",
">o c #B2720D",
"1  c #9D650E",
"1. c #A96F13",
"mo c #A66E14",
"xX c #7C5112",
"ho c #A9721A",
"H  c #5B3D13",
"RX c #644317",
"-O c #493115",
"K  c #221815",
"qo c #463019",
"4o c #432F19",
"`. c #3A2918",
"8  c #2B1E17",
"dX c #191216",
"zX c #161116",
"lX c #100C15",
"U. c #161117",
"j  c #161118",
"<. c #281D1A",
"0o c #100C18",
"f. c #FFA200",
"*  c #FF9F00",
"k. c #FFA201",
"Z. c #FC9E00",
"Yo c #FC9B00",
"z. c #F39800",
"l  c #FF9F01",
"w  c #F99A00",
".  c #F69900",
",X c #F69901",
".. c #F39802",
"D. c #F69902",
"(  c #F39803",
"Zo c #F39804",
"=o c #F69C05",
".X c #ED9906",
"yX c #E79104",
"Bo c #ED9606",
"JX c #E79105",
",O c #ED9608",
"%. c #E18F08",
";O c #E7940C",
"B. c #CF860D",
"!  c #C07B0C",
"bo c #B7750C",
"U  c #B7780F",
"*o c #A56C0D",
">O c #BD7A11",
"/  c #BA7911",
"D  c #A2680E",
"2o c #A56C10",
"1o c #AE7212",
"gX c #996210",
",o c #936010",
":o c #9F6711",
"So c #8A5A11",
"ZX c #996514",
"po c #936014",
")X c #875C15",
"%O c #9C6918",
"Ao c #8D5E16",
"~. c #6C4713",
"d  c #634112",
"Ro c #724C15",
" o c #604015",
"MX c #6F4B18",
"AX c #4E3415",
"$X c #452E15",
"Q. c #7B551E",
"i  c #150F15",
"J  c #150F16",
"+. c #2D2019",
"6O c #33251B",
"6o c #0F0D19",
"WX c #332821",
"}. c #FE9D00",
"b  c #FB9C00",
"3O c #FEA002",
"#  c #FB9C01",
"!X c #FBA203",
"+  c #F29600",
"&. c #F89B02",
"x  c #F29601",
"/. c #EF9503",
"8. c #EC9404",
"Go c #F29907",
"jX c #E08D06",
"Z  c #D78708",
"7. c #CB8009",
"HX c #C87F0A",
"ro c #C57E0A",
"NX c #CB830E",
"`X c #C27D0D",
":. c #AA6C0B",
"Q  c #BF7C0F",
"Eo c #C27D10",
"oX c #A1660C",
"BX c #B67610",
".o c #AD7010",
"7O c #9B640F",
"ao c #AA6F11",
"vo c #A16911",
"j. c #BF7F16",
"uX c #955F10",
"Ho c #A46D16",
"_X c #956214",
"-. c #7D5112",
"sX c #6E4913",
"Xo c #926118",
")  c #5C3D13",
"lo c #6B4817",
"QX c #624217",
"s. c #3B2916",
"5X c #3E2A16",
"{  c #5C401B",
"E. c #3E2A17",
"h  c #231815",
"wo c #4A341A",
"eo c #442F19",
"3o c #3E2A18",
"N  c #0E0B17",
"1O c #141019",
"l. c #FA9A00",
"3  c #F79900",
"@  c #F49800",
"aX c #F19700",
"Po c #F49801",
"P. c #FD9E02",
"2X c #FDA104",
"m. c #F49802",
"8X c #F19703",
"F. c #EE9603",
"c  c #EB9202",
"so c #EE9604",
"3. c #DC8A05",
"A. c #E28F06",
"0O c #D98906",
"&O c #F79C09",
"Uo c #D98908",
"a. c #D08609",
"5  c #CD820A",
"(o c #CA810B",
"<  c #BE7A0D",
"#o c #A96D0E",
"IX c #B87811",
"'o c #AC7114",
"$. c #9A6513",
"y. c #8B5A11",
"Io c #976415",
"jo c #B87B19",
"2O c #6D4711",
"[o c #734C14",
"I. c #6D4713",
"<X c #7C5216",
">. c #674514",
"#. c #644113",
"m  c #5E3F14",
"`o c #704B17",
"7o c #583A14",
"}X c #885C1C",
"[  c #5B3E17",
"no c #5B3E18",
"4. c #402C16",
"L  c #402C17",
"5o c #463119",
"Jo c #6D4D21",
"_  c #130E16",
"!. c #191318",
"t. c #070718",
"FX c #FFA900",
"~X c #FFA600",
"No c #FFA300",
"i. c #FFA000",
"wX c #FC9C00",
"C  c #F99B00",
"o  c #F99B01",
"e. c #F99B02",
"X  c #F39903",
"'X c #EA9303",
"%X c #ED9404",
":O c #F09806",
"2  c #E18D05",
"cX c #DE8C08",
"{o c #DB8B09",
"q. c #DB8B0B",
"X. c #CC830E",
"*X c #B4720C",
"mX c #A56A0D",
"=X c #9C640D",
"Oo c #9C640E",
".O c #C38014",
"o. c #935E0E",
/* pixels */
"          . X o     O +                                   @ @ @ ",
"          . X # $ % & * =                                 @ @ @ ",
"          - ; : > , < 1 2 3                               @ @ @ ",
"          4 5 6 7 8 9 0 q w                               @ @ @ ",
"        = e r t y u i p a =               . 3 =           @ @ @ ",
"        . s d f g h j k l           O % z x c v b O       @ @ @ ",
"        3 n m f h M N B V v       @ C Z A S D F 5 v       @ @ @ ",
"        3 G H J K L P I U Y v T @ R E W Q ! ~ ^ / ( T           ",
"        3 G ) _ ` ' ] [ { } |  .T ..X.o.O.+.@.#.$.%.3           ",
"        3 &.*.=.-.;.:.>.,.<.1.2.% 3.4.5.6.7.8.9.0.q.w.          ",
"        . e.r.t.y.u.i.p.a.s.d.f.C g.h.j.k.z b w l.3 x           ",
"z.      . x.c.v.b.n.m.M.N.B.V.C.Z.A.S.& D.F.G.H.J.K.L.=         ",
"        = P.I.U.Y.T.R.E.W.Q.!.~.^./.(.)._.`.'.].[.{.}.          ",
"        = * |. X.XXXoXOX+X@X#X$X%X% $ &X*X=X-X;X:X>X,X@         ",
"        T * <X1Xp.}.i.l 2X3X4X5X6X7XO v * i.i.b % 8X9X          ",
"          l 0XqXwXO O b eXrXtXO.yX%     O         @             ",
"          i.uXiXpXaX  i.sX_ dXfX8Xv     = w @     T             ",
"        O p.gXhXf.* i.jXkXlXzXxX* . 2.C cXvXb z bXnXnX          ",
"        O i.mXMXNXBXVXCXZXAXSXDXFXGXHX/.JXKXLXPXIXUXYXT         ",
"        O wXTXRXEXWXQX!X~X^X/X(X)X_X`X'Xz ]X[X{X}X|XT           ",
"          T GX o.oXoooOo+o@o#o$o%o&o*o=o^X-o;o:o>o2.+           ",
"          O i.,o<o1o2o3o4o5o6o7o8o9o0oqowoeorotoyov             ",
"@           v uoiopoaosodofogohojokolozoxoG covo* T             ",
"              i.bonomoMoNo* o BoVoCoZo2.p.jXAo/.3             @ ",
"    z.          i.SoDoFoY v GoHoJoKoLoo PoIoUoYo+               ",
"                3 ToRo$.EoWoz Qo!o~op.^o/o(o2.                  ",
"                  )o_o`o'oq.i.]o$o[op.{o}o%                     ",
"                  + & |o O.OXOoOOO+O@O#OL.=                     ",
"                    + z $O%O&O*O=O-O;O:O=                       ",
"                      @ v >O,O<O1O2O3OT                         ",
"                        T 4OC 5O6O7Oi.+                         ",
"                          @ T 8O9O0Ov                           "
};
