/* XPM */
static const char *bitcoin16_xpm[] = {
/* columns rows colors chars-per-pixel */
"16 16 158 2",
"g. c #CE8206",
"z  c #EC9705",
"1. c #FBA001",
"Y  c #3E2A16",
"v  c #865611",
"G. c #D88705",
"a. c #905E14",
"'  c #05071A",
"6  c #FB9D00",
"+. c #FFB700",
"~  c #F69900",
"X  c #F19500",
"B  c #19141A",
"]  c #EC9102",
"a  c #7A5117",
"e  c #00001C",
"1  c #00001E",
"D  c #9D6714",
"O  c #FFB100",
"x  c #ED9B02",
"g  c #EF9503",
"H. c #B1710C",
"s. c #B6750D",
"%  c #C57E08",
"#. c #F99A00",
"3  c #FFAE00",
"O. c #302214",
"2. c #B67209",
"T  c #F7A002",
"<. c #C57E0D",
"z. c #FFAB00",
"m  c #F79D00",
"2  c #352314",
"w  c #352315",
"o. c #F79D03",
"c. c #E89104",
"6. c #5D4019",
"X. c #FFA800",
"A  c #A5690D",
"k  c #8F6212",
".  c #F29600",
"r  c #49301A",
"L  c #6C4611",
"m. c #BE7A12",
"7. c #38271B",
"4. c #8F5C10",
"l  c #3D2B1D",
"@. c #E18D05",
"W  c #8F5C12",
"$  c #FA9E00",
"3. c #563C1D",
"7  c #F09602",
"0  c #FF9F00",
"i. c #BC7A11",
";  c #FA9B00",
"5  c #F59700",
"(  c #C17B0A",
"s  c #D58809",
"/  c #DA8905",
"9. c #A66A0D",
"R  c #FD9F01",
"c  c #593D1B",
"   c #F39700",
"M. c #B06F08",
"t  c #F19D05",
"l. c #774F16",
">  c #FD9C00",
"u  c #F69E01",
"E  c #815412",
"P  c #7C5011",
"S. c #956111",
"d  c #FB9F00",
"&. c #A46A10",
":. c #8E6010",
"y. c #B3730F",
":  c #FB9C00",
"Z. c #F69800",
"_  c #FFB600",
"t. c #7F5415",
"H  c #E08E08",
"B. c #E08E09",
"e. c #F99C00",
"M  c #FE9D00",
"j. c #FFAD00",
"N. c #302114",
"<  c #352517",
"A. c #E3920B",
"k. c #DE8B03",
"C  c #E2A504",
"F  c #DE8B06",
"v. c #FC9D00",
"Z  c #6C4814",
"o  c #FFA700",
"=. c #AA6C0E",
"|  c #F79900",
"*. c #765019",
"8. c #624016",
"h  c #2E2118",
"+  c #FFA400",
"y  c #FFA100",
"%. c #FA9D00",
"I  c #926513",
"9  c #F59900",
"@  c #F09500",
"f  c #FF9E00",
"p  c #835613",
"U  c #885A16",
"!  c #EE9804",
"8  c #EE9502",
"V. c #EE9505",
"=  c #E99104",
"-  c #FD9E00",
"^  c #F89A00",
"b. c #F39600",
"D. c #2A1E18",
"p. c #D3870F",
"q. c #D88806",
"S  c #F19903",
"b  c #B3750B",
"G  c #E79104",
"$. c #F19600",
"}  c #F19601",
"4  c #FB9B00",
"i  c #DB8C08",
"x. c #D68808",
"J  c #EF9602",
"{  c #F99B00",
")  c #FFAF00",
"#  c #F49700",
"h. c #78521A",
"n. c #BB770B",
"`  c #82540E",
"d. c #CA800A",
"V  c #82540F",
"&  c #784C10",
"r. c #ED9601",
"C. c #F29700",
";. c #583A12",
"f. c #FFA600",
",. c #E69505",
"Q  c #C37F12",
"*  c #674313",
"[  c #FFA300",
">. c #FFA301",
"n  c #DC8A07",
" . c #E68F02",
"w. c #FFA000",
".. c #AD6F0D",
"-. c #BF8208",
"K  c #F59800",
"N  c #FA9C01",
"0. c #7E5416",
"j  c #835510",
"5. c #A4740F",
",  c #FDA002",
"q  c #F39803",
"F. c #F39805",
"u. c #B0700D",
/* pixels */
"  . X o O + @ .                 ",
"  # $ % & * = -     ; :         ",
"  > , < 1 2 3 4 5 6 7 8 9       ",
"  0 q w e r t y u i p a s d     ",
"  f g h j k l z x c v b n m     ",
"  M N B V C Z A S D F G H J K   ",
"  : 8 L P I U Y T R E W Q ! ~   ",
"  ^ / ( ) _ ` ' ] [ [ + { }     ",
"  |  ...X.o.e O.+.6 @.#.~ $.    ",
"  K %.&.*.=.-.;.:.>.,.*.<.1.#   ",
"    X.2.3.4.5.6.7.8.9.0.q.w.    ",
"    e.r.t.y.u.i.p.a.s.d.6 #   # ",
"    X f.g.h.j.k.l.z.x.c.v..     ",
"      b.f.n.m.M.N.B.V.f $.      ",
"      C.Z.0 A.S.D.F.0 .         ",
"        . | w.G.H.f #           "
};
